<svg xmlns="http://www.w3.org/2000/svg" width="315.426" height="89.592" viewBox="0 0 315.426 89.592">
  <g id="Group_3584" data-name="Group 3584" transform="translate(-142.411 -282.476)">
    <g id="Group_3579" data-name="Group 3579" transform="translate(142.411 282.476)">
      <path id="Path_16290" data-name="Path 16290" d="M224.194,362.529a9.454,9.454,0,0,1,3.991-7.024l21.96-12.438a8.806,8.806,0,0,0,3.824-7.045v-5.529l-29.775,16.864v-.03l-5.577,3.159a5.726,5.726,0,0,0-2.486,4.581V393.5l7.6-4.307.459-.26,27.8-15.744a4.554,4.554,0,0,0,1.977-3.643V361.6l-29.775,16.864v-.323a9.454,9.454,0,0,1,3.991-7.024l21.96-12.438a8.806,8.806,0,0,0,3.824-7.045v-5.529L224.194,362.97v-.441Z" transform="translate(-174.85 -303.907)" fill="#0f263a"/>
      <path id="Path_16291" data-name="Path 16291" d="M213.148,310.342l.026.015,5.965-3.51c1.469-.865,1.416-2.321-.117-3.253L185.4,283.158l-8.134,4.787-.491.289-28.224,16.612.007.011-.653.381a5.956,5.956,0,0,0-2.486,4.725V311.6l-.007,0v38.566l8.662,5.266v-39.69a6.209,6.209,0,0,1,1.95-4.331l29.909-17.6.282.172c2.162,1.314,2.071,3.494-.1,5.045l-23.488,13.824c-.032.019-.059.04-.091.059l-1.058.619a5.953,5.953,0,0,0-2.486,4.725v.47h-.009v39.694l8.662,5.267V330.856l.017-.036v-6.788a5.965,5.965,0,0,1,2.463-4.709l.267-.157c.2-.118.43-.251.666-.392l28.431-16.734.026.016.36.219c2.162,1.314,2.071,3.494-.1,5.045l-19.58,11.524-1.905,1.1-3.178,1.856a5.956,5.956,0,0,0-2.486,4.726v.489l-.006,0V366.7l8.662,5.266V339.176l.014-.03v-6.788a5.955,5.955,0,0,1,2.486-4.725c.448-.256,1.049-.614,1.652-.978Zm-45.609,10.378v0l-.067-.043Z" transform="translate(-145.411 -283.158)" fill="#0f263a"/>
    </g>
    <g id="Group_3583" data-name="Group 3583" transform="translate(239.446 298.871)">
      <g id="Group_3580" data-name="Group 3580">
        <path id="Path_16292" data-name="Path 16292" d="M334.91,323.223l-11.8-11.061h-5.667v22.046h6.815v-12.86l10.647,9.818,10.648-9.818v12.86H352.4V312.162h-5.608Z" transform="translate(-317.445 -312.059)" fill="#0f263a"/>
        <path id="Path_16293" data-name="Path 16293" d="M408.172,312.162l-17.467,22.046H398.7l4.059-5.107h15.5l4.17,5.107h8.056l-17.66-22.046Zm-1.218,11.659,3.548-4.435,3.579,4.435Z" transform="translate(-350.389 -312.059)" fill="#0f263a"/>
        <path id="Path_16294" data-name="Path 16294" d="M500.593,323.739a5.693,5.693,0,0,0-.726-9.988,16.119,16.119,0,0,0-7.8-1.59h-19.13v22.046h6.871V325.9h9.7l7.674,8.306h8.384l-8.194-8.905A10.538,10.538,0,0,0,500.593,323.739Zm-20.784-6.332h12.2a7.27,7.27,0,0,1,3.436.638c.651.366.706.706.706,1,0,.309-.052.638-.676.97a7.993,7.993,0,0,1-3.66.611H479.809Z" transform="translate(-387.369 -312.059)" fill="#0f263a"/>
        <rect id="Rectangle_17737" data-name="Rectangle 17737" width="6.926" height="22.149" transform="translate(125.49)" fill="#0f263a"/>
        <path id="Path_16295" data-name="Path 16295" d="M601.534,324.909l-17.887-12.747h-4.022v22.046H586.5V321.453l17.973,12.755h3.965V312.162h-6.9Z" transform="translate(-435.345 -312.059)" fill="#0f263a"/>
        <path id="Path_16296" data-name="Path 16296" d="M664.134,312.162h-4.645l-17.467,22.046h7.992l4.059-5.107h15.5l4.17,5.107h8.056Zm-5.863,11.659,3.549-4.435,3.577,4.435Z" transform="translate(-463.404 -312.059)" fill="#0f263a"/>
      </g>
      <g id="Group_3581" data-name="Group 3581" transform="translate(0 28.786)">
        <path id="Path_16297" data-name="Path 16297" d="M317.445,375.936v-11.21h8.472v1.289h-7.135v3.29H323.1V370.6h-4.314v4.051h7.574v1.289Z" transform="translate(-317.445 -364.483)" fill="#0f263a"/>
        <path id="Path_16298" data-name="Path 16298" d="M373.6,375.936v-11.21h1.337v9.92h7.038v1.289Z" transform="translate(-342.698 -364.483)" fill="#0f263a"/>
        <path id="Path_16299" data-name="Path 16299" d="M428.089,375.936v-11.21h8.473v1.289h-7.135v3.29h4.315V370.6h-4.315v4.051H437v1.289Z" transform="translate(-367.201 -364.483)" fill="#0f263a"/>
        <path id="Path_16300" data-name="Path 16300" d="M492.142,372.163l1.074.833a5.354,5.354,0,0,1-4.958,3.036,5.276,5.276,0,0,1-4-1.66,6.413,6.413,0,0,1,.005-8.428,5.28,5.28,0,0,1,3.992-1.66,5.529,5.529,0,0,1,2.723.68,5.371,5.371,0,0,1,2,1.939l-1.123.833a3.77,3.77,0,0,0-1.464-1.574,4.1,4.1,0,0,0-2.138-.568,3.91,3.91,0,0,0-3.006,1.294,5.09,5.09,0,0,0,0,6.544,3.916,3.916,0,0,0,3.006,1.29,4,4,0,0,0,2.255-.65A4.87,4.87,0,0,0,492.142,372.163Z" transform="translate(-391.751 -364.284)" fill="#0f263a"/>
        <path id="Path_16301" data-name="Path 16301" d="M542.216,375.936v-9.92h-4.529v-1.289H548.1v1.289h-4.538v9.92Z" transform="translate(-416.486 -364.483)" fill="#0f263a"/>
        <path id="Path_16302" data-name="Path 16302" d="M593.878,375.936v-11.21h6.179a3.518,3.518,0,0,1,2.479.828,2.957,2.957,0,0,1,.9,2.29,3.213,3.213,0,0,1-.7,2.086,3.008,3.008,0,0,1-1.855,1.081l2.694,4.925h-1.484l-2.694-4.9h-4.178v4.9Zm1.337-6.214h4.754a2.24,2.24,0,0,0,1.538-.467,1.745,1.745,0,0,0,.522-1.371,1.8,1.8,0,0,0-.522-1.375,2.058,2.058,0,0,0-1.469-.493h-4.822Z" transform="translate(-441.754 -364.483)" fill="#0f263a"/>
        <path id="Path_16303" data-name="Path 16303" d="M652.038,375.886v-11.27H653.4v11.27Z" transform="translate(-467.908 -364.433)" fill="#0f263a"/>
        <path id="Path_16304" data-name="Path 16304" d="M704.615,372.163l1.074.833a5.354,5.354,0,0,1-4.958,3.036,5.276,5.276,0,0,1-4-1.66,6.413,6.413,0,0,1,.005-8.428,5.28,5.28,0,0,1,3.992-1.66,5.529,5.529,0,0,1,2.723.68,5.373,5.373,0,0,1,2,1.939l-1.123.833a3.771,3.771,0,0,0-1.464-1.574,4.1,4.1,0,0,0-2.138-.568,3.91,3.91,0,0,0-3.006,1.294,5.09,5.09,0,0,0,0,6.544,3.916,3.916,0,0,0,3.006,1.29,4,4,0,0,0,2.255-.65A4.871,4.871,0,0,0,704.615,372.163Z" transform="translate(-487.298 -364.284)" fill="#0f263a"/>
      </g>
      <g id="Group_3582" data-name="Group 3582" transform="translate(0 48.945)">
        <path id="Path_16305" data-name="Path 16305" d="M317.445,409.242v-8.009h4.593a2.6,2.6,0,0,1,1.733.5,1.856,1.856,0,0,1,.588,1.491,1.934,1.934,0,0,1-.183.856,1.543,1.543,0,0,1-.521.609,2.616,2.616,0,0,1,.936.907,2.385,2.385,0,0,1,.316,1.233,2.272,2.272,0,0,1-.707,1.759,2.722,2.722,0,0,1-1.917.649Zm.964-4.846h3.714a1.366,1.366,0,0,0,.936-.287,1.041,1.041,0,0,0,.324-.823,1.086,1.086,0,0,0-.313-.849,1.372,1.372,0,0,0-.946-.283h-3.714Zm0,3.925h4.066a1.364,1.364,0,0,0,1.041-.4,1.776,1.776,0,0,0,0-2.195,1.358,1.358,0,0,0-1.041-.406h-4.066Z" transform="translate(-317.445 -401.059)" fill="#0f263a"/>
        <path id="Path_16306" data-name="Path 16306" d="M334.458,409.242v-8.009h4.453a2.55,2.55,0,0,1,1.786.591,2.1,2.1,0,0,1,.647,1.636,2.283,2.283,0,0,1-.506,1.49,2.169,2.169,0,0,1-1.337.773l1.942,3.519h-1.069l-1.941-3.5h-3.01v3.5Zm.964-4.44h3.426a1.623,1.623,0,0,0,1.108-.334,1.241,1.241,0,0,0,.376-.98,1.282,1.282,0,0,0-.376-.983,1.492,1.492,0,0,0-1.059-.352h-3.475Z" transform="translate(-325.096 -401.059)" fill="#0f263a"/>
        <path id="Path_16307" data-name="Path 16307" d="M350.192,409.206v-8.053h.978v8.053Z" transform="translate(-332.171 -401.023)" fill="#0f263a"/>
        <path id="Path_16308" data-name="Path 16308" d="M356.212,409.242v-8.009h.506l5.036,5.985v-5.985h.971v8.009h-.493l-5.057-5.985v5.985Z" transform="translate(-334.878 -401.059)" fill="#0f263a"/>
        <path id="Path_16309" data-name="Path 16309" d="M377.7,406.93v-1.175h-2.118v-.921h3.081v2.408a4.022,4.022,0,0,1-1.466,1.534,3.959,3.959,0,0,1-2.051.533,3.816,3.816,0,0,1-2.88-1.186,4.55,4.55,0,0,1,0-6.02,3.82,3.82,0,0,1,2.877-1.186,4.018,4.018,0,0,1,1.962.486,3.859,3.859,0,0,1,1.442,1.386l-.809.595a2.7,2.7,0,0,0-1.055-1.124,2.978,2.978,0,0,0-1.54-.406,2.828,2.828,0,0,0-2.167.925,3.613,3.613,0,0,0,0,4.675,2.834,2.834,0,0,0,2.167.922,2.878,2.878,0,0,0,1.452-.363A3.224,3.224,0,0,0,377.7,406.93Z" transform="translate(-341.586 -400.916)" fill="#0f263a"/>
        <path id="Path_16310" data-name="Path 16310" d="M388.461,409.206v-8.053h.978v8.053Z" transform="translate(-349.38 -401.023)" fill="#0f263a"/>
        <path id="Path_16311" data-name="Path 16311" d="M394.481,409.242v-8.009h.506l5.036,5.985v-5.985h.971v8.009H400.5l-5.057-5.985v5.985Z" transform="translate(-352.087 -401.059)" fill="#0f263a"/>
        <path id="Path_16312" data-name="Path 16312" d="M415.967,406.93v-1.175H413.85v-.921h3.081v2.408a4.021,4.021,0,0,1-1.467,1.534,3.96,3.96,0,0,1-2.05.533,3.817,3.817,0,0,1-2.881-1.186,4.551,4.551,0,0,1,0-6.02,3.82,3.82,0,0,1,2.877-1.186,4.019,4.019,0,0,1,1.962.486,3.859,3.859,0,0,1,1.442,1.386l-.809.595a2.7,2.7,0,0,0-1.055-1.124,2.979,2.979,0,0,0-1.54-.406,2.828,2.828,0,0,0-2.167.925,3.611,3.611,0,0,0,0,4.675,2.834,2.834,0,0,0,2.167.922,2.878,2.878,0,0,0,1.452-.363A3.223,3.223,0,0,0,415.967,406.93Z" transform="translate(-358.795 -400.916)" fill="#0f263a"/>
        <path id="Path_16313" data-name="Path 16313" d="M435.421,409.242v-8.009h6.106v.921h-5.141v2.35h3.109v.921h-3.109v2.895h5.458v.921Z" transform="translate(-370.498 -401.059)" fill="#0f263a"/>
        <path id="Path_16314" data-name="Path 16314" d="M449.711,409.242v-8.009h.507l5.036,5.985v-5.985h.971v8.009h-.493l-5.057-5.985v5.985Z" transform="translate(-376.924 -401.059)" fill="#0f263a"/>
        <path id="Path_16315" data-name="Path 16315" d="M465.752,409.242v-8.009h6.106v.921h-5.142v2.35h3.109v.921h-3.109v2.895h5.458v.921Z" transform="translate(-384.137 -401.059)" fill="#0f263a"/>
        <path id="Path_16316" data-name="Path 16316" d="M479.966,409.242v-8.009h4.452a2.552,2.552,0,0,1,1.787.591,2.1,2.1,0,0,1,.647,1.636,2.283,2.283,0,0,1-.506,1.49,2.171,2.171,0,0,1-1.337.773l1.941,3.519h-1.069l-1.941-3.5h-3.011v3.5Zm.963-4.44h3.426a1.623,1.623,0,0,0,1.107-.334,1.239,1.239,0,0,0,.376-.98,1.28,1.28,0,0,0-.376-.983,1.49,1.49,0,0,0-1.058-.352h-3.475Z" transform="translate(-390.529 -401.059)" fill="#0f263a"/>
        <path id="Path_16317" data-name="Path 16317" d="M501.12,406.93v-1.175H499v-.921h3.081v2.408a4.023,4.023,0,0,1-1.467,1.534,3.959,3.959,0,0,1-2.051.533,3.817,3.817,0,0,1-2.88-1.186,4.552,4.552,0,0,1,0-6.02,3.821,3.821,0,0,1,2.877-1.186,4.016,4.016,0,0,1,1.962.486,3.865,3.865,0,0,1,1.442,1.386l-.81.595a2.7,2.7,0,0,0-1.055-1.124,2.976,2.976,0,0,0-1.54-.406,2.826,2.826,0,0,0-2.166.925,3.611,3.611,0,0,0,0,4.675,2.833,2.833,0,0,0,2.166.922,2.88,2.88,0,0,0,1.453-.363A3.221,3.221,0,0,0,501.12,406.93Z" transform="translate(-397.087 -400.916)" fill="#0f263a"/>
        <path id="Path_16318" data-name="Path 16318" d="M511.927,409.242V405.23l-3.5-4h1.21l2.779,3.163,2.764-3.163h1.224l-3.517,4.011v4Z" transform="translate(-403.33 -401.059)" fill="#0f263a"/>
        <path id="Path_16319" data-name="Path 16319" d="M532.247,409.242v-7.087h-3.263v-.921h7.505v.921h-3.271v7.087Z" transform="translate(-412.572 -401.059)" fill="#0f263a"/>
        <path id="Path_16320" data-name="Path 16320" d="M546.268,409.309a3.815,3.815,0,0,1-2.88-1.186,4.55,4.55,0,0,1,0-6.02,4.094,4.094,0,0,1,5.768,0,4.525,4.525,0,0,1,0,6.017A3.85,3.85,0,0,1,546.268,409.309Zm0-.936a2.834,2.834,0,0,0,2.166-.922,3.622,3.622,0,0,0,0-4.679,3.008,3.008,0,0,0-4.337,0,3.613,3.613,0,0,0,0,4.675A2.835,2.835,0,0,0,546.268,408.374Z" transform="translate(-418.538 -400.916)" fill="#0f263a"/>
        <path id="Path_16321" data-name="Path 16321" d="M568.755,409.242V405.23l-3.5-4h1.21l2.779,3.163,2.764-3.163h1.224l-3.517,4.011v4Z" transform="translate(-428.884 -401.059)" fill="#0f263a"/>
        <path id="Path_16322" data-name="Path 16322" d="M583.463,409.309a3.817,3.817,0,0,1-2.88-1.186,4.551,4.551,0,0,1,0-6.02,4.095,4.095,0,0,1,5.768,0,4.524,4.524,0,0,1,0,6.017A3.848,3.848,0,0,1,583.463,409.309Zm0-.936a2.834,2.834,0,0,0,2.167-.922,3.623,3.623,0,0,0,0-4.679,3.008,3.008,0,0,0-4.337,0,3.611,3.611,0,0,0,0,4.675A2.833,2.833,0,0,0,583.463,408.374Z" transform="translate(-435.265 -400.916)" fill="#0f263a"/>
        <path id="Path_16323" data-name="Path 16323" d="M597.756,401.233v5.187a2.3,2.3,0,0,0,.453,1.672,3.949,3.949,0,0,0,3.563,0,2.31,2.31,0,0,0,.45-1.672v-5.187h.97v5.455a2.667,2.667,0,0,1-.746,2.122,5.013,5.013,0,0,1-4.909,0,2.667,2.667,0,0,1-.746-2.122v-5.455Z" transform="translate(-443.065 -401.059)" fill="#0f263a"/>
        <path id="Path_16324" data-name="Path 16324" d="M612.245,409.242v-8.009H616.7a2.55,2.55,0,0,1,1.786.591,2.1,2.1,0,0,1,.647,1.636,2.283,2.283,0,0,1-.506,1.49,2.169,2.169,0,0,1-1.337.773l1.942,3.519h-1.069l-1.942-3.5h-3.01v3.5Zm.964-4.44h3.426a1.624,1.624,0,0,0,1.108-.334,1.239,1.239,0,0,0,.376-.98,1.28,1.28,0,0,0-.376-.983,1.491,1.491,0,0,0-1.059-.352h-3.475Z" transform="translate(-450.014 -401.059)" fill="#0f263a"/>
        <path id="Path_16325" data-name="Path 16325" d="M636.928,409.242l-2.532-8.009h.95l1.927,6.181,1.977-6.181h.865l1.97,6.166,1.934-6.166h.921l-2.525,8.009h-.7l-2.047-6.449-2.026,6.449Z" transform="translate(-459.975 -401.059)" fill="#0f263a"/>
        <path id="Path_16326" data-name="Path 16326" d="M658.416,409.309a3.817,3.817,0,0,1-2.881-1.186,4.551,4.551,0,0,1,0-6.02,4.095,4.095,0,0,1,5.768,0,4.524,4.524,0,0,1,0,6.017A3.847,3.847,0,0,1,658.416,409.309Zm0-.936a2.834,2.834,0,0,0,2.166-.922,3.623,3.623,0,0,0,0-4.679,3.008,3.008,0,0,0-4.336,0,3.611,3.611,0,0,0,0,4.675A2.834,2.834,0,0,0,658.416,408.374Z" transform="translate(-468.97 -400.916)" fill="#0f263a"/>
        <path id="Path_16327" data-name="Path 16327" d="M672.038,409.242v-8.009h4.453a2.55,2.55,0,0,1,1.786.591,2.1,2.1,0,0,1,.647,1.636,2.282,2.282,0,0,1-.506,1.49,2.172,2.172,0,0,1-1.337.773l1.941,3.519h-1.069l-1.941-3.5H673v3.5ZM673,404.8h3.426a1.623,1.623,0,0,0,1.108-.334,1.24,1.24,0,0,0,.377-.98,1.281,1.281,0,0,0-.377-.983,1.491,1.491,0,0,0-1.059-.352H673Z" transform="translate(-476.902 -401.059)" fill="#0f263a"/>
        <path id="Path_16328" data-name="Path 16328" d="M687.747,409.242v-8.009h.964v7.087h5.071v.921Z" transform="translate(-483.966 -401.059)" fill="#0f263a"/>
        <path id="Path_16329" data-name="Path 16329" d="M704.163,401.233a4.009,4.009,0,0,1,2.958,1.117,3.925,3.925,0,0,1,1.121,2.909,3.877,3.877,0,0,1-1.1,2.894,4.054,4.054,0,0,1-2.975,1.089h-3.327v-8.009Zm0,.921H701.8v6.166h2.364a3.085,3.085,0,1,0,0-6.166Z" transform="translate(-489.852 -401.059)" fill="#0f263a"/>
      </g>
      <rect id="Rectangle_17738" data-name="Rectangle 17738" width="218.391" height="1.219" transform="translate(0 43.766)" fill="#0f263a"/>
    </g>
  </g>
</svg>
